Coordinates
version=1
nRows=8
nColumns=36
inDegrees=yes

Units are S.I. units (second, meters, Newtons, ...)
If the header above contains a line with 'inDegrees', this indicates whether rotational values are in degrees (yes) or radians (no).

endheader
time	pelvis_tilt	pelvis_list	pelvis_rotation	pelvis_tx	pelvis_ty	pelvis_tz	hip_flexion_r	hip_adduction_r	hip_rotation_r	knee_angle_r	knee_angle_r_beta	ankle_angle_r	subtalar_angle_r	mtp_angle_r	hip_flexion_l	hip_adduction_l	hip_rotation_l	knee_angle_l	knee_angle_l_beta	ankle_angle_l	subtalar_angle_l	mtp_angle_l	lumbar_extension	lumbar_bending	lumbar_rotation	arm_flex_r	arm_add_r	arm_rot_r	elbow_flex_r	pro_sup_r	arm_flex_l	arm_add_l	arm_rot_l	elbow_flex_l	pro_sup_l
     30.35000000	     -2.05527561	      2.88065889	    180.64391502	      0.51036572	      1.08645203	      0.72188916	      8.74441920	      5.14431111	      0.28938610	     20.72811415	      0.36177384	     -2.08857634	     -6.85773154	     -7.49999987	     17.37171471	     -7.91957375	      1.17525451	     72.84182535	      1.27132969	     -4.91016728	     -8.34273192	     -7.49999987	    -16.34320771	      1.35492381	      4.60467386	      8.39925925	    -15.11084610	      4.49761517	     25.21504163	    102.70499398	     16.81540389	    -11.42341815	      2.36743986	     20.65198954	    104.22956849
     30.36666670	     -2.44674458	      2.81249309	    180.47769541	      0.51073552	      1.09046239	      0.72121432	      7.34927297	      5.03728607	     -0.14524883	     20.97112287	      0.36601514	     -1.49480804	     -8.14242307	     -7.49999987	     18.64813200	     -7.81837234	      1.09845287	     72.84154875	      1.27132486	     -3.73602032	     -8.53347429	     -7.49999987	    -16.69025200	      1.29959796	      4.90093988	      8.97839683	    -15.20894649	      4.53959789	     25.20613042	    102.69574434	     16.38851670	    -11.34640542	      2.77891928	     19.38230031	    104.42517894
     30.38333330	     -2.87645467	      2.70529003	    180.30660441	      0.51181582	      1.09559632	      0.72095855	      5.77414874	      4.88386665	     -0.34683319	     20.76628778	      0.36244010	     -0.96288575	     -9.53401950	     -7.49999987	     19.61399415	     -7.68518296	      0.87453794	     71.79025676	      1.25297635	     -2.56341513	     -8.50020792	     -7.49999987	    -17.09236265	      1.15662070	      5.23156447	      9.43203627	    -15.35366915	      4.52765287	     25.51725126	    102.53025819	     15.99676764	    -11.20548726	      3.33961705	     18.24747855	    104.41326442
     30.40000000	     -3.24060400	      2.55739998	    180.10567356	      0.51287260	      1.10172836	      0.72093291	      4.10633601	      4.72424258	     -0.30847973	     20.00057874	      0.34907595	     -0.56267353	    -10.74464620	     -7.49999987	     20.32656439	     -7.51758132	      0.48488704	     69.72289563	      1.21689409	     -1.51319548	     -8.26375301	     -7.49999987	    -17.41126736	      0.94412946	      5.64878285	      9.72460473	    -15.55701555	      4.37482919	     25.99357273	    102.79293458	     15.59296984	    -10.95688506	      3.89985450	     17.03713735	    104.97602754
     30.41666670	     -3.56577534	      2.36745498	    179.90549371	      0.51370005	      1.10788810	      0.72097011	      2.37165462	      4.56064055	     -0.11977854	     18.75756912	      0.32738134	     -0.51877444	    -11.80309400	     -7.49999987	     20.76454842	     -7.28796249	     -0.00899247	     66.76166561	      1.16521088	     -0.64893237	     -7.93751901	     -7.49999987	    -17.68077160	      0.68802507	      6.04805926	      9.89081030	    -15.86071471	      4.48043743	     26.61219800	    102.48321513	     15.12411028	    -10.71527381	      4.88270302	     15.81287143	    105.00135041
     30.43333330	     -3.81020100	      2.13057048	    179.61707400	      0.51494433	      1.11143387	      0.72081491	      0.79929583	      4.35452839	      0.09859946	     17.45272135	      0.30460745	     -0.54287343	    -12.55599818	     -7.49999987	     20.98410224	     -7.02460632	     -0.61469503	     63.11425573	      1.10155157	     -0.17170166	     -7.93680192	     -7.49999987	    -17.87831593	      0.36068247	      6.55116690	     10.04355192	    -16.17024273	      4.52837480	     27.04131030	    102.23637993	     14.61512454	    -10.45534987	      5.92082895	     14.75710513	    104.94973698
     30.45000000	     -3.91170632	      1.97656985	    179.40773756	      0.51723619	      1.11227647	      0.72109513	     -0.47728103	      4.22999088	      0.16494977	     16.33386230	      0.28507968	     -0.62079628	    -13.35596402	     -7.49999987	     21.13551957	     -6.88146415	     -1.13855962	     59.06410811	      1.03086316	      0.02287316	     -8.15268693	     -7.49999987	    -17.89686943	      0.17467574	      6.92925142	     10.09772091	    -16.53472162	      4.49256518	     27.73274501	    102.08585118	     14.09219889	    -10.28416706	      7.52148675	     13.67634440	    105.02813756
     30.46666670	     -3.99192193	      1.84808508	    179.12789679	      0.52030906	      1.11295789	      0.72184862	     -1.58793621	      4.09478337	      0.22589426	     15.47904814	      0.27016036	     -0.63420989	    -14.17026916	     -7.49999987	     20.97713208	     -6.85420639	     -1.74984520	     54.55880709	      0.95223082	     -0.20913511	     -8.71827077	     -7.49999987	    -17.91105425	      0.00620631	      7.25952055	     10.34908058	    -16.92623897	      5.00841667	     28.16514707	    100.79926071	     13.46073385	    -10.14657079	      8.85064586	     12.99631146	    103.87303176
